<svg width="8" height="14" viewBox="0 0 8 14" fill="none" xmlns="http://www.w3.org/2000/svg">
<path d="M6.39798 13.5003C6.68036 13.8033 7.15494 13.8201 7.45798 13.5377C7.76102 13.2553 7.77777 12.7808 7.49539 12.4777L6.39798 13.5003ZM1.47075 7.1124L0.927198 6.59563L0.440801 7.10724L0.922044 7.62369L1.47075 7.1124ZM7.49024 1.86942C7.77564 1.56922 7.76365 1.0945 7.46346 0.809098C7.16326 0.523694 6.68854 0.535686 6.40313 0.835881L7.49024 1.86942ZM7.49539 12.4777L2.01946 6.60111L0.922044 7.62369L6.39798 13.5003L7.49539 12.4777ZM2.0143 7.62917L7.49024 1.86942L6.40313 0.835881L0.927198 6.59563L2.0143 7.62917Z" fill="#1A1818"/>
</svg>
