<svg width="38" height="37" viewBox="0 0 38 37" fill="none" xmlns="http://www.w3.org/2000/svg">
<g clip-path="url(#clip0)" filter="url(#filter0_d)">
<path d="M29.9484 6.38101C29.3173 5.74954 28.5678 5.24861 27.743 4.90684C26.9182 4.56507 26.0341 4.38916 25.1413 4.38916C24.2485 4.38916 23.3644 4.56507 22.5395 4.90684C21.7147 5.24861 20.9653 5.74954 20.3341 6.38101L19.0242 7.69093L17.7143 6.38101C16.4394 5.10607 14.7102 4.38982 12.9071 4.38982C11.1041 4.38982 9.37492 5.10607 8.09998 6.38101C6.82504 7.65595 6.10879 9.38513 6.10879 11.1882C6.10879 12.9912 6.82504 14.7204 8.09998 15.9953L9.4099 17.3052L19.0242 26.9195L28.6385 17.3052L29.9484 15.9953C30.5799 15.3641 31.0808 14.6147 31.4226 13.7899C31.7644 12.9651 31.9403 12.081 31.9403 11.1882C31.9403 10.2953 31.7644 9.41125 31.4226 8.58642C31.0808 7.7616 30.5799 7.01219 29.9484 6.38101Z" fill="#FF725F" stroke="#FF725F" stroke-width="2.80976" stroke-linecap="round" stroke-linejoin="round"/>
</g>
<defs>
<filter id="filter0_d" x="0.195114" y="0.682861" width="37.6585" height="37.6585" filterUnits="userSpaceOnUse" color-interpolation-filters="sRGB">
<feFlood flood-opacity="0" result="BackgroundImageFix"/>
<feColorMatrix in="SourceAlpha" type="matrix" values="0 0 0 0 0 0 0 0 0 0 0 0 0 0 0 0 0 0 127 0"/>
<feOffset dy="4"/>
<feGaussianBlur stdDeviation="2"/>
<feColorMatrix type="matrix" values="0 0 0 0 0 0 0 0 0 0 0 0 0 0 0 0 0 0 0.25 0"/>
<feBlend mode="normal" in2="BackgroundImageFix" result="effect1_dropShadow"/>
<feBlend mode="normal" in="SourceGraphic" in2="effect1_dropShadow" result="shape"/>
</filter>
<clipPath id="clip0">
<rect width="29.6585" height="29.6585" fill="white" transform="translate(4.19511 0.682861)"/>
</clipPath>
</defs>
</svg>
