<svg width="18" height="16" viewBox="0 0 18 16" fill="none" xmlns="http://www.w3.org/2000/svg">
<path d="M8.55733 0.424737C8.74523 0.0685852 9.2553 0.0685861 9.44321 0.424738L11.6407 4.58969C11.7131 4.72703 11.8452 4.82299 11.9982 4.84947L16.6384 5.65233C17.0352 5.72098 17.1928 6.20609 16.9121 6.49486L13.6301 9.8718C13.5218 9.98316 13.4714 10.1384 13.4935 10.2921L14.1638 14.9533C14.2211 15.3519 13.8085 15.6517 13.4471 15.474L9.22125 13.3961C9.0819 13.3276 8.91864 13.3276 8.77928 13.3961L4.55341 15.474C4.19205 15.6517 3.7794 15.3519 3.83672 14.9533L4.50703 10.2921C4.52914 10.1384 4.47869 9.98316 4.37046 9.8718L1.08841 6.49486C0.807754 6.20609 0.965374 5.72098 1.36216 5.65233L6.00231 4.84947C6.15533 4.82299 6.28741 4.72703 6.35987 4.58969L8.55733 0.424737Z" fill="#FFD78A"/>
</svg>
